<svg width="48" height="48" viewBox="0 0 48 48" fill="none" xmlns="http://www.w3.org/2000/svg">
<path d="M9.50016 9.10899C11.5002 9.50899 13.3335 9.27566 14.0002 9.10899C14.3335 7.60899 15.0002 3.90899 15.0002 1.10899C17.4002 0.308992 22 4.10899 24 6.10899C24.8 4.10899 30.3333 2.60899 33 2.10899L32.9766 2.26239C32.6375 4.69981 33.5105 9.1299 34 10.109C37.2 8.10899 42 9.27566 44 10.109C41.2 12.109 39.5 16.609 39 18.609C40.2 20.209 44.8333 19.9423 47 19.609C47.4 22.009 43.5 26.2757 41.5 28.109C42.5 30.109 44.5 30.609 46 30.609C44.4 33.409 40.6667 35.4423 39 36.109L39.9185 41.1468C38.2872 41.8492 34.975 40.0923 33.5 39.109C27.8333 38.9423 16.2 38.709 15 39.109C13.8 39.509 9.16667 40.609 7 41.109C6.6 39.909 7.5 36.9423 8 35.609L2 32.109C4.8 31.709 6.5 29.2757 7 28.109C6.6 27.309 2.83333 24.4423 1 23.109C5 20.309 8 19.2757 9 19.109C8.5 18.609 5.50016 12.609 5.00016 11.109C4.60016 9.90899 4.83349 8.60899 5.00016 8.10899C5.66682 8.27566 7.50016 8.70899 9.50016 9.10899Z" fill="#A3D1E3"/>
<path d="M40 41.109C39.9733 41.1223 39.9462 41.1349 39.9185 41.1468M39.9185 41.1468C38.2872 41.8492 34.975 40.0923 33.5 39.109C27.8333 38.9423 16.2 38.709 15 39.109C13.8 39.509 9.16667 40.609 7 41.109C6.6 39.909 7.5 36.9423 8 35.609L2 32.109C4.8 31.709 6.5 29.2757 7 28.109C6.6 27.309 2.83333 24.4423 1 23.109C5 20.309 8 19.2757 9 19.109C8.5 18.609 5.50016 12.609 5.00016 11.109C4.60016 9.90899 4.83349 8.60899 5.00016 8.10899C5.66682 8.27566 7.50016 8.70899 9.50016 9.10899C11.5002 9.50899 13.3335 9.27566 14.0002 9.10899C14.3335 7.60899 15.0002 3.90899 15.0002 1.10899C17.4002 0.308992 22 4.10899 24 6.10899C24.8 4.10899 30.3333 2.60899 33 2.10899M39.9185 41.1468L39 36.109C40.6667 35.4423 44.4 33.409 46 30.609C44.5 30.609 42.5 30.109 41.5 28.109C43.5 26.2757 47.4 22.009 47 19.609C44.8333 19.9423 40.2 20.209 39 18.609C39.5 16.609 41.2 12.109 44 10.109C42 9.27566 37.2 8.10899 34 10.109C33.5105 9.1299 32.6375 4.69981 32.9766 2.26239M33 2.10899C32.9916 2.15918 32.9838 2.21033 32.9766 2.26239M33 2.10899L32.9766 2.26239" stroke="#4F4F4F" stroke-width="0.3"/>
<path d="M16.85 32.109C16.85 34.2353 15.1263 35.959 13 35.959C10.8737 35.959 9.15 34.2353 9.15 32.109C9.15 29.9827 10.8737 28.259 13 28.259C15.1263 28.259 16.85 29.9827 16.85 32.109ZM38.85 32.109C38.85 34.2353 37.1263 35.959 35 35.959C32.8737 35.959 31.15 34.2353 31.15 32.109C31.15 29.9827 32.8737 28.259 35 28.259C37.1263 28.259 38.85 29.9827 38.85 32.109Z" fill="#C1BCB2" stroke="#4F4F4F" stroke-width="0.3"/>
<rect x="13.15" y="11.259" width="21.7" height="35.7" rx="10.85" fill="#D0C9BB" stroke="#4F4F4F" stroke-width="0.3"/>
<path d="M25.85 30.609C25.85 31.8357 25.6287 32.939 25.2771 33.7301C25.1013 34.1258 24.8957 34.4367 24.6751 34.6467C24.4552 34.856 24.2273 34.959 24 34.959C23.7727 34.959 23.5448 34.856 23.3249 34.6467C23.1043 34.4367 22.8987 34.1258 22.7229 33.7301C22.3713 32.939 22.15 31.8357 22.15 30.609C22.15 29.3823 22.3713 28.279 22.7229 27.4879C22.8987 27.0922 23.1043 26.7813 23.3249 26.5713C23.5448 26.362 23.7727 26.259 24 26.259C24.2273 26.259 24.4552 26.362 24.6751 26.5713C24.8957 26.7813 25.1013 27.0922 25.2771 27.4879C25.6287 28.279 25.85 29.3823 25.85 30.609Z" fill="#E7E2D8" stroke="#4F4F4F" stroke-width="0.3"/>
<circle cx="19.5" cy="25.609" r="4.35" fill="white" stroke="#4F4F4F" stroke-width="0.3"/>
<circle cx="19" cy="26.109" r="1" fill="#4F4F4F"/>
<circle cx="28.5" cy="25.609" r="4.35" fill="white" stroke="#4F4F4F" stroke-width="0.3"/>
<circle cx="29" cy="26.109" r="1" fill="#4F4F4F"/>
<path d="M22.502 42.609C21.3839 41.491 21.4702 41.1958 20.002 40.609C17.5259 39.6193 19.718 37.1942 22.3825 37.2967L27.2032 37.4821C28.7491 37.5416 29.9697 39.6198 28.502 40.109C25.5019 41.109 26.002 40.109 25.502 41.609C25.002 43.109 23.502 43.609 22.502 42.609Z" fill="#D2E6D4" stroke="#4F4F4F" stroke-width="0.3" stroke-linecap="round"/>
<path fill-rule="evenodd" clip-rule="evenodd" d="M26.6871 38.503C24.9048 38.2484 23.0954 38.2484 21.3131 38.503L17.1415 39.0989C16.5948 39.177 16.0883 38.7971 16.0102 38.2504C15.9321 37.7036 16.312 37.1971 16.8587 37.119L21.0303 36.5231C23.0002 36.2417 25.0001 36.2417 26.97 36.5231L31.1415 37.119C31.6883 37.1971 32.0682 37.7036 31.9901 38.2504C31.912 38.7971 31.4054 39.177 30.8587 39.0989L26.6871 38.503Z" fill="#C1BCB2" stroke="#4F4F4F" stroke-width="0.3" stroke-linecap="round"/>
<path fill-rule="evenodd" clip-rule="evenodd" d="M21.1554 22.6059C20.0061 22.2228 18.7835 22.1126 17.5843 22.2839L16.1415 22.49C15.5948 22.5681 15.0883 22.1882 15.0102 21.6415C14.9321 21.0947 15.312 20.5882 15.8587 20.5101L17.3015 20.304C18.8081 20.0887 20.344 20.2272 21.7878 20.7085C23.2493 21.1956 24.8222 21.2393 26.3084 20.834L26.8275 20.6924C28.5618 20.2194 30.3825 20.1567 32.1453 20.5093L32.1962 20.5195C32.7378 20.6278 33.089 21.1546 32.9807 21.6961C32.8724 22.2377 32.3456 22.5889 31.804 22.4806L31.7531 22.4704C30.2947 22.1788 28.7885 22.2306 27.3537 22.6219L26.8347 22.7635C24.9675 23.2727 22.9914 23.2179 21.1554 22.6059Z" fill="#A3D1E3" stroke="#4F4F4F" stroke-width="0.3" stroke-linecap="round"/>
</svg>
